<svg version="1" xmlns="http://www.w3.org/2000/svg" width="710.667" height="710.667" viewBox="0 0 533.000000 533.000000"><path d="M300.6 96.2c-2.1 1.9-5.6 12.9-22.1 70.3-10.8 37.4-20.5 70.9-21.5 74.5-.9 3.6-8.6 30.1-17 59-8.3 28.9-15.3 53.2-15.5 54-.2.8-.4 1.5-.5 1.5-.1 0-.3.7-.5 1.5s-2.9 10.3-6 21-5.8 20.2-6 21c-.3.8-2.1 7.2-4.1 14.2-3.3 11.1-3.6 13-2.5 15.6 1 2.5 5.2 5.4 8.1 5.7.3.1 3.8.9 7.8 1.9 8.4 2.1 11.6 1.6 13.5-2.2.8-1.5 3.6-10.1 6.2-19.2 2.5-9.1 5.3-18.4 6.1-20.7.7-2.3 1.6-5.2 1.8-6.5.4-2.1 4.2-15.3 15.3-52.8 2.5-8.5 4.7-16.2 4.8-17 .2-.8 1.5-5.6 3-10.5 4.3-14.7 35.3-121.9 36-124.5.3-.8 1.8-6.2 3.5-12s3.3-11.2 3.5-12c.2-.8 3.5-12.5 7.4-26 3.9-13.4 7.1-25.6 7.1-27.1 0-4.4-3-6.6-12.8-9.3-11.1-3.2-12.4-3.2-15.6-.4zM98.4 201.4c-33.2 33.2-60.5 61.1-60.5 62-.1.9-.2 2.2-.3 2.8-.1.7.2 2.2.7 3.3.6 1.1 27.9 28.9 60.8 61.7 56.9 57 59.9 59.8 63.3 59.8 3.2 0 4.6-1 12.1-8.4 13.5-13.5 17.7-6.8-41.7-66.3L82.5 266l50-50c59-58.9 55.1-53 43.1-65.2-4.1-4.2-8.4-8.1-9.5-8.7-5.6-3-4.2-4.2-67.7 59.3zM358.8 149.8c-7.6 7.7-8.8 9.3-8.8 12.2 0 3.2 3.5 7 50.2 53.7 44 44 50 50.4 48.8 51.8-.7.9-23.1 23.3-49.7 49.9-49.3 49.4-51.2 51.5-48.6 56 1.9 3.5 15.6 16.6 17.9 17.2 1.3.3 3.4.4 4.6 0 1.3-.3 29.5-27.7 62.7-61l60.4-60.4-.6-3.8c-.6-3.5-6.6-9.8-60.9-64.1-56.3-56.2-60.6-60.3-63.8-60.3-2.9 0-4.5 1.2-12.2 8.8z"/></svg>